<svg width="142" height="32" viewBox="0 0 142 32" fill="none" xmlns="http://www.w3.org/2000/svg">
<path d="M7.71752 14.1946C7.61872 14.2925 7.64342 14.4392 7.76692 14.5004C7.79162 14.5126 7.82867 14.5248 7.85337 14.5493C8.50793 14.8551 9.33539 15.1119 10.2987 15.3198C11.0644 15.4788 11.8795 15.6011 12.7811 15.699C12.8675 15.7112 12.954 15.6745 13.0157 15.6134L15.7822 12.8737C15.8933 12.7636 16.0909 12.7636 16.2021 12.8737L18.9809 15.6256C19.0426 15.6867 19.1291 15.7112 19.2155 15.7112C20.1788 15.6134 21.0433 15.4788 21.8461 15.3076C22.3031 15.2098 22.7353 15.0874 23.1429 14.9651C23.6245 14.8061 23.9703 14.6716 24.242 14.5248C24.3532 14.4637 24.3779 14.3169 24.2914 14.2191L21.7597 11.7118L21.6979 11.6507V11.6629L20.2282 10.2075L19.9442 9.92616L18.7462 8.73979H18.7586L17.6965 7.68797C16.7702 6.77068 15.2511 6.77068 14.3249 7.68797L13.2627 8.73979L12.0648 9.9017L11.7931 10.1585L10.2987 11.6507L7.71752 14.1946Z" fill="#F0425C"/>
<path d="M29.2741 19.2063L28.4065 18.3487L27.762 17.7239C27.6504 17.6136 27.638 17.4543 27.7372 17.3318C27.8983 17.1235 28.0595 16.8907 28.2082 16.6457C28.4065 16.3149 28.5676 15.9474 28.6792 15.5553C28.7907 15.1633 28.8527 14.7467 28.8403 14.3424C28.8279 13.9381 28.7412 13.5215 28.5924 13.1295C28.4313 12.7497 28.2082 12.4066 27.9479 12.1248C27.4273 11.5613 26.82 11.2305 26.2375 10.9854C25.6549 10.7404 25.06 10.5934 24.4774 10.4709C23.8949 10.3483 23.3123 10.2748 22.7422 10.2136C22.3703 10.1768 21.9985 10.1401 21.6267 10.1156C21.4655 10.1033 21.3168 10.2381 21.3168 10.3974C21.3416 10.4709 21.4036 10.5321 21.4779 10.5566C21.8498 10.6424 22.234 10.7404 22.5934 10.8507C22.8661 10.9364 23.1264 11.0222 23.3867 11.1202C23.647 11.2182 23.8949 11.3285 24.1428 11.4387C24.6385 11.6715 25.0971 11.9411 25.5062 12.2474C25.9028 12.5537 26.2251 12.909 26.3738 13.252C26.5225 13.595 26.5101 13.8891 26.411 14.1954C26.3118 14.4894 26.1135 14.7345 25.8408 14.9917C25.7045 15.1143 25.5434 15.2368 25.3698 15.347L25.3574 15.3593C25.1839 15.4696 25.0104 15.5676 24.8121 15.6656C24.4154 15.8739 23.9816 16.0331 23.523 16.1801C23.0644 16.3272 22.5934 16.4497 22.11 16.5599C21.4655 16.707 20.8086 16.805 20.1393 16.8907C19.8047 16.9275 19.47 16.9643 19.1353 17.001C18.119 17.099 17.1026 17.1358 16.0739 17.1358C15.0451 17.1358 14.0288 17.099 13.0124 17.001C12.6282 16.9643 12.2439 16.9275 11.8597 16.8785C11.24 16.7927 10.6326 16.6947 10.0377 16.5722C9.07093 16.3639 8.12894 16.0944 7.32329 15.7023C7.08779 15.5921 6.86469 15.4696 6.65398 15.3348C6.51764 15.249 6.3813 15.151 6.25735 15.053C5.97227 14.808 5.76157 14.5629 5.63762 14.2811C5.60044 14.2076 5.58804 14.1341 5.56325 14.0606C5.53846 13.9871 5.52607 13.9136 5.52607 13.8278C5.51367 13.6686 5.52607 13.5215 5.58804 13.35C5.69959 13.007 5.98467 12.6394 6.35651 12.3209C6.72835 12.0023 7.18695 11.7205 7.67034 11.4878C8.15373 11.255 8.6743 11.0467 9.20727 10.8752C9.64108 10.7404 10.0749 10.6179 10.5211 10.5199C10.6203 10.4954 10.6822 10.4219 10.6946 10.3238C10.707 10.1891 10.5831 10.0911 10.4467 10.0911C9.98813 10.1156 9.52953 10.1646 9.05853 10.2136C8.48838 10.2748 7.90583 10.3606 7.32329 10.4954C6.74074 10.6179 6.1458 10.7894 5.56325 11.0589C5.26578 11.1937 4.96831 11.353 4.68324 11.5613C4.39816 11.7695 4.12548 12.0146 3.87759 12.3209C3.64209 12.6272 3.44378 12.9947 3.31983 13.399C3.19588 13.7911 3.1463 14.2076 3.1587 14.6242C3.17109 15.0407 3.25786 15.445 3.3942 15.8248C3.53054 16.2047 3.70406 16.5599 3.91477 16.8785C4.02632 17.05 4.13787 17.2093 4.26182 17.3563C4.34858 17.4788 4.33619 17.6381 4.23703 17.7484L3.59251 18.3609L2.72489 19.2186C1.80769 20.1252 1.74571 21.5954 2.62573 22.5388C3.55533 23.5189 5.11705 23.5434 6.07143 22.6L7.48442 21.2033L8.2157 20.4805C8.30246 20.3947 8.4388 20.3702 8.55035 20.4192C8.61233 20.4437 8.6743 20.4805 8.74867 20.505C9.93855 20.9951 11.1532 21.3259 12.3927 21.5464C13.6197 21.7669 14.8716 21.8649 16.1111 21.8527C17.3505 21.8527 18.59 21.7302 19.8294 21.4974C21.0565 21.2646 22.2836 20.9093 23.4611 20.407C23.5726 20.358 23.709 20.3825 23.7957 20.4682L24.527 21.1911L25.9524 22.6C26.4234 23.0656 27.0307 23.2984 27.638 23.2984C28.2578 23.2984 28.8775 23.0656 29.3485 22.5878C30.2533 21.6444 30.2037 20.1252 29.2741 19.2063Z" fill="#F0425C"/>
<path d="M50.8977 19.3755C50.6168 19.3755 50.364 19.2256 50.2423 18.9821L49.512 17.5584H44.1097L43.3795 18.9728C43.2577 19.2163 43.0049 19.3661 42.7334 19.3661C42.1904 19.3661 41.8346 18.7854 42.078 18.2984L44.5404 13.484C44.9992 12.5754 45.561 11.9291 46.8156 11.9291C48.0702 11.9291 48.6132 12.5754 49.0907 13.484L51.5531 18.3077C51.8059 18.7948 51.4501 19.3755 50.8977 19.3755ZM47.5739 13.7931C47.4148 13.484 47.2088 13.2873 46.8156 13.2873C46.4223 13.2873 46.2163 13.484 46.0572 13.7931L44.8119 16.2003H48.8098L47.5739 13.7931Z" fill="#111827"/>
<path d="M54.1435 19.3755H54.078C53.6761 19.3755 53.349 19.0522 53.349 18.6549V12.1419H54.4332C56.4053 12.1419 56.938 12.7701 58.7885 15.2922C60.5363 17.6757 60.6578 17.842 61.4522 17.842H61.4616V12.8625C61.4616 12.4652 61.7887 12.1419 62.1906 12.1419H62.256C62.6579 12.1419 62.985 12.4652 62.985 12.8625V19.3755H61.9008C60.0877 19.3755 59.5456 18.8027 57.5455 16.216C55.6762 13.7956 55.6202 13.6755 54.8818 13.6755H54.8725V18.6549C54.8725 19.0522 54.5453 19.3755 54.1435 19.3755Z" fill="#111827"/>
<path d="M64.6981 12.1419H70.776C73.428 12.1419 74.334 13.3783 74.334 15.7587C74.334 18.1392 73.428 19.3755 70.776 19.3755H64.6981V12.1419ZM70.776 13.6089H66.2459V17.8901H70.776C72.5409 17.8901 72.7579 17.1427 72.7579 15.7587C72.7579 14.3747 72.5409 13.6089 70.776 13.6089Z" fill="#111827"/>
<path d="M75.833 12.1419H82.1511C83.935 12.1419 85.0407 12.9456 85.0407 14.3961C85.0407 15.4123 84.5018 16.0405 83.5541 16.3084C84.4832 16.604 84.8827 17.1953 84.8827 17.9528V18.6549C84.8827 19.0522 84.5575 19.3755 84.158 19.3755H84.0372C83.6377 19.3755 83.3125 19.0522 83.3125 18.6549V17.9159C83.3125 17.5094 83.0895 16.992 82.1232 16.992H77.3568V18.6549C77.3568 19.0522 77.0316 19.3755 76.632 19.3755H76.567C76.1675 19.3755 75.8423 19.0522 75.8423 18.6549V12.1419H75.833ZM82.2719 15.6525C83.2103 15.6525 83.4983 15.0427 83.4983 14.5624C83.4983 14.082 83.2103 13.4722 82.2719 13.4722H77.3568V15.6525H82.2719Z" fill="#111827"/>
<path d="M96.6038 15.6523C96.6038 18.4516 94.9593 19.3755 91.4647 19.3755C87.9794 19.3755 86.3255 18.4516 86.3255 15.6523C86.3255 12.853 87.97 11.9291 91.4647 11.9291C94.9593 11.9291 96.6038 12.853 96.6038 15.6523ZM95.0434 15.6523C95.0434 13.6291 93.8661 13.3519 91.474 13.3519C89.0819 13.3519 87.8953 13.6291 87.8953 15.6523C87.8953 17.6756 89.0726 17.9528 91.474 17.9528C93.8754 17.9528 95.0434 17.6756 95.0434 15.6523Z" fill="#111827"/>
<path d="M99.5999 13.7309V18.6457C99.5999 19.0429 99.2724 19.3663 98.8701 19.3663H98.8326C98.4303 19.3663 98.1028 19.0429 98.1028 18.6457V12.1419H99.5906C100.161 12.1419 100.405 12.4283 100.629 12.7054L103.67 16.4008L106.711 12.7054C106.936 12.4283 107.179 12.1419 107.75 12.1419H109.238V18.6549C109.238 19.0522 108.91 19.3755 108.508 19.3755H108.47C108.068 19.3755 107.741 19.0522 107.741 18.6549V13.7309L104.26 17.8789H103.081L99.5999 13.7309Z" fill="#111827"/>
<path d="M114.516 13.3685C113.073 13.3685 112.639 13.9036 112.526 14.8724H120.241V16.2287H112.526C112.63 17.1883 113.063 17.7142 114.516 17.7142H120.373V19.1628H114.516C111.866 19.1628 110.951 17.9264 110.951 15.5459C110.951 13.1655 111.866 11.9291 114.516 11.9291H120.373V13.3685H114.516Z" fill="#111827"/>
<path d="M121.872 12.1419H127.949C130.601 12.1419 131.507 13.3783 131.507 15.7587C131.507 18.1392 130.601 19.3755 127.949 19.3755H121.872V12.1419ZM127.949 13.6089H123.419V17.8901H127.949C129.714 17.8901 129.931 17.1427 129.931 15.7587C129.931 14.3747 129.714 13.6089 127.949 13.6089Z" fill="#111827"/>
<path d="M141.262 19.3755C140.981 19.3755 140.728 19.2256 140.607 18.9821L139.876 17.5678H134.474L133.744 18.9821C133.622 19.2256 133.369 19.3755 133.097 19.3755C132.554 19.3755 132.199 18.7948 132.442 18.3077L134.905 13.484C135.363 12.5754 135.925 11.9291 137.18 11.9291C138.434 11.9291 138.977 12.5754 139.455 13.484L141.927 18.3077C142.161 18.7948 141.805 19.3755 141.262 19.3755ZM137.929 13.7931C137.77 13.484 137.564 13.2873 137.17 13.2873C136.777 13.2873 136.571 13.484 136.412 13.7931L135.167 16.2003H139.165L137.929 13.7931Z" fill="#111827"/>
</svg>
